<?xml version="1.0" encoding="utf-8"?>
<!-- Generator: Adobe Illustrator 22.0.1, SVG Export Plug-In . SVG Version: 6.00 Build 0)  -->
<svg version="1.1" id="Layer_1" xmlns="http://www.w3.org/2000/svg" xmlns:xlink="http://www.w3.org/1999/xlink" x="0px" y="0px"
	 viewBox="0 0 463 463" style="enable-background:new 0 0 463 463;" xml:space="preserve">
<style type="text/css">
	.st0{fill:#2E4765;}
</style>
<g>
	<g>
		<path class="st0" d="M388.9,272h-0.3c7.1-9.3,13.3-21.7,13-36.6c-0.3-20.2-12.4-39.9-35.9-58.7c2.9-8.8,3.6-17.5,1.8-26
			c-6.8-33.7-43.4-47.2-77-54.7c1.2-4,1.8-8.2,1.8-12.5c0-16.5-9.2-30.8-22.7-38.2C283.2,18,301.1,15,308.3,15c9.2,0,15,2,18.3,3.7
			c2.6,1.4,5.7,1.2,8.1-0.6c4.4-3.3,3.8-10-1-12.6C328.3,2.7,320.1,0,308.3,0c-14.4,0-27.9,6.6-39,19.1c-3.7,4.2-9.2,11.3-13.9,21.4
			c-2.1-0.3-4.3-0.5-6.5-0.5c-16.3,0-30.6,9-38,22.4c-2.7-3-5.7-7-7.9-11.4c-0.9-1.9-2.5-3.3-4.5-3.9c-2-0.6-4.1-0.4-5.9,0.6
			C170.2,60.2,153.8,77,144,97.4c-8.4,17.5-10,33.6-10,43c-0.6,0.2-1.3,0.5-1.8,0.7c-19.4,8.3-30.6,24.2-32.4,45.8
			c-0.7,8.7,0.3,16.5,1.3,22c-15.4,5.5-26.2,16.1-30.1,30c-3.1,10.9-1.5,22.8,3.9,33.1h-6c-2.3,0-4.4,1-5.9,2.8
			c-1.4,1.8-2,4.1-1.5,6.3l37.2,163.5c2.4,10.8,11.9,18.3,22.9,18.3h214.5c11,0,20.5-7.5,22.9-18.3l37.2-163.5
			c0.5-2.2,0-4.6-1.5-6.3C393.3,273,391.2,272,388.9,272z M248.9,55c15.7,0,28.5,12.8,28.5,28.5S264.6,112,248.9,112
			s-28.5-12.8-28.5-28.5S233.2,55,248.9,55z M121.7,448c-4,0-7.4-2.7-8.3-6.6L78.3,287h24.3l26.8,157.3c0.2,1.3,0.5,2.5,0.9,3.7
			H121.7z M148.5,448c-1.4,0-3.6-2.2-4.3-6.2L117.8,287h24.4L160,443.9c0.2,1.4,0.4,2.8,0.7,4.1H148.5z M176.7,448
			c-0.5-0.8-1.4-2.7-1.7-5.8L157.3,287h24.5l8.9,156.5c0.1,1.6,0.2,3.1,0.4,4.5H176.7z M221.4,448h-15.1c-0.3-1.3-0.5-3.1-0.6-5.4
			L196.8,287h24c0,0,0,0,0,0c0,0,0,0,0,0h0.5L221.4,448L221.4,448z M252.1,442.6c-0.1,2.3-0.4,4.1-0.6,5.4h-15.1V287H261
			L252.1,442.6z M281.2,448h-14.5c0.2-1.4,0.3-2.9,0.4-4.5L276,287h24.5l-17.6,155.2C282.5,445.3,281.7,447.2,281.2,448z M309.3,448
			h-12.3c0.3-1.3,0.5-2.7,0.7-4.1L315.6,287H340l-26.4,154.8C312.9,445.8,310.7,448,309.3,448z M344.4,441.4
			c-0.9,3.9-4.3,6.6-8.3,6.6h-8.6c0.4-1.2,0.7-2.4,0.9-3.7L355.2,287h15.9c0,0,0,0,0,0c0,0,0,0,0,0h8.3L344.4,441.4z M368.3,272
			h-115c16.9-8.8,38.7-21.2,59.3-35.6c3.4-2.4,4.2-7.1,1.8-10.4s-7.1-4.2-10.4-1.8c-35.7,25.1-76.6,44.2-84.7,47.9H93.1
			c-7.5-8-10.5-19.2-7.7-29c3.1-11.2,13.2-19,28.4-22c14.2-2.8,51.9-10.8,93.9-22.9c4-1.1,6.3-5.3,5.1-9.3c-1.1-4-5.3-6.3-9.3-5.1
			c-37.5,10.8-71.4,18.2-88,21.6c-2.3-12.3-3.8-39.1,22.4-50.3c10.1-4.3,30.7-8.1,52.4-12l7.3-1.3c4.1-0.7,6.8-4.7,6-8.7
			c-0.7-4.1-4.7-6.8-8.7-6l-7.2,1.3c-14,2.6-27.6,5-38.6,7.7c1-17.5,8.4-48.3,44.5-71.4c2.7,4,5.6,7.4,7.9,9.8c1.6,1.7,3,3,4.2,4
			c-0.2,1.7-0.3,3.4-0.3,5.2c0,24,19.5,43.5,43.5,43.5c14.1,0,26.6-6.7,34.6-17.2c14.8,3.1,27,6.8,36.9,11c1.9,2.8,1.6,4.9,1.1,6.5
			c-1.9,5.8-13.5,21.9-81,44.8c-3.9,1.3-6,5.6-4.7,9.5c1.1,3.1,4,5.1,7.1,5.1c0.8,0,1.6-0.1,2.4-0.4c24.2-8.2,43.8-16.4,58.3-24.4
			c18.4-10.1,28.9-19.9,32.1-30.1c0.2-0.7,0.4-1.5,0.6-2.2c9.2,6.7,14.6,14.6,16.5,24c2.8,13.6-3.4,28.7-18.4,44.7
			c-2.8,3-2.7,7.8,0.4,10.6c1.4,1.3,3.3,2,5.1,2c2,0,4-0.8,5.5-2.4c5.6-6,10.2-12,13.8-17.9c18,15.1,27.2,30.2,27.4,44.9
			C386.9,252,376,264.9,368.3,272z"/>
	</g>
</g>
</svg>
