<?xml version="1.0" encoding="utf-8"?>
<!-- Generator: Adobe Illustrator 22.0.1, SVG Export Plug-In . SVG Version: 6.00 Build 0)  -->
<svg version="1.1" id="Capa_1" xmlns="http://www.w3.org/2000/svg" xmlns:xlink="http://www.w3.org/1999/xlink" x="0px" y="0px"
	 viewBox="0 0 512 512" style="enable-background:new 0 0 512 512;" xml:space="preserve">
<style type="text/css">
	.st0{fill:#2E4765;}
</style>
<g>
	<g>
		<path class="st0" d="M186.8,85.3c2.7,0,5.2-1.4,6.6-3.9l6.5-12c2-3.6,0.6-8.2-3-10.2c-3.6-2-8.2-0.6-10.2,3l-6.5,12
			c-2,3.6-0.6,8.2,3,10.2C184.4,85.1,185.6,85.3,186.8,85.3z"/>
		<path class="st0" d="M263.4,78.7V65c0-4.1-3.4-7.5-7.5-7.5s-7.5,3.4-7.5,7.5v13.7c0,4.1,3.4,7.5,7.5,7.5S263.4,82.8,263.4,78.7z"
			/>
		<path class="st0" d="M325.2,85.2c1.3,0,2.6-0.3,3.8-1c3.6-2.1,4.8-6.7,2.7-10.2l-6.9-11.8c-2.1-3.6-6.7-4.8-10.2-2.7
			c-3.6,2.1-4.8,6.7-2.7,10.2l6.9,11.8C320.1,83.9,322.6,85.2,325.2,85.2L325.2,85.2z"/>
		<path class="st0" d="M512,231.6V225c0-14-7.1-26.4-17.8-33.8c2.5-2,4.8-4.4,6.8-7.2c6.7-9.4,8.3-21.5,4.5-32.4
			c-9.3-26.3-28.6-64.1-67.9-95.2C392.3,20.6,331.2,1.8,256.1,0.8c-0.1,0-0.1,0-0.2,0c-34,0.5-65.4,4.6-93.5,12.3
			c-4,1.1-6.3,5.2-5.2,9.2s5.2,6.3,9.2,5.2c26.8-7.4,57-11.3,89.6-11.8c162.2,2.4,217.1,89.3,235.3,140.8c2.3,6.4,1.3,13.2-2.6,18.7
			c-3.9,5.5-9.9,8.6-16.6,8.6H39.9c-6.7,0-12.8-3.2-16.7-8.7c-3.9-5.4-4.8-12.1-2.6-18.4c13.3-37.8,43.8-89,113.8-118.4
			c3.8-1.6,5.6-6,4-9.8c-1.6-3.8-6-5.6-9.8-4C94.5,39,66,59.6,43.9,86.1C27.6,105.5,15,127.7,6.4,151.9c-3.8,10.9-2.2,22.6,4.5,32
			c2,2.8,4.3,5.2,6.9,7.2C7.1,198.6,0,211,0,225v6.6c0,19.8,14.1,36.4,32.8,40.2l-0.2,44.8C14,320.5,0,337,0,356.8v6.6
			c0,19.8,14.1,36.3,32.7,40.2c-0.5,7.9-0.2,20.7,4.3,34.9c12.3,38.4,45.5,56.7,71.2,65.3c14.8,4.9,30.6,7.5,47,7.5h201.5
			c16.4,0,32.2-2.5,47-7.5c25.7-8.6,58.9-26.9,71.2-65.3c4.5-14.2,4.8-27.1,4.3-34.9c18.7-3.9,32.7-20.4,32.7-40.2v-6.6
			c0-19.8-14.1-36.4-32.8-40.2v-44.8C497.9,268,512,251.4,512,231.6L512,231.6z M15,363.4v-6.6c0-11.4,7.4-21.1,17.6-24.6l0,4.4
			c0,10.6,6,20.1,15.6,24.6c9.7,4.6,20.8,3.2,29.1-3.6c3.9-3.2,8.6-6.1,16.8-6.1c0.9,0,1.7,0,2.5,0.1v37.9H41.1
			C26.7,389.4,15,377.7,15,363.4L15,363.4z M313.8,304.7h150.4v31.9c0,4.9-2.6,9-7,11.1c-4.4,2.1-9.4,1.5-13.2-1.7
			c-5.4-4.4-13.3-9.5-26.3-9.5c-16.1,0-24.4,6.5-31.6,12.3c-6.4,5.1-11.4,9.1-22.3,9.1c-10.9,0-15.9-4-22.3-9.1
			c-7.3-5.8-15.5-12.3-31.6-12.3s-24.7,6.8-31.6,12.3c-6.4,5.1-11.4,9.1-22.3,9.1c-10.9,0-15.9-4-22.3-9.1
			c-6.9-5.5-15.5-12.3-31.6-12.3c-16.1,0-24.4,6.5-31.6,12.3c-4.6,3.6-8.5,6.7-14.2,8.1v-42.2c0-5.5,4.5-9.9,9.9-9.9h112.6
			c4.1,0,7.5-3.4,7.5-7.5s-3.4-7.5-7.5-7.5H166c-13.7,0-24.9,11.2-24.9,24.9V407c0,8.2-6.6,14.8-14.8,14.8s-14.8-6.6-14.8-14.8
			v-92.3c0-13.7-11.2-24.9-24.9-24.9H47.8v-17.1h416.5v17.1H313.8c-4.1,0-7.5,3.4-7.5,7.5S309.6,304.7,313.8,304.7L313.8,304.7z
			 M86.5,304.7c5.5,0,9.9,4.5,9.9,9.9v21.8c-0.8,0-1.6-0.1-2.5-0.1c-13,0-20.9,5.1-26.3,9.5c-3.8,3.1-8.7,3.7-13.2,1.7
			c-4.4-2.1-7-6.2-7-11.1v-31.9H86.5z M460.7,434c-8.3,26-29,44.7-61.6,55.6c-13.3,4.4-27.5,6.7-42.3,6.7H155.3
			c-14.8,0-29-2.2-42.3-6.7c-63.8-21.3-66.5-68.4-65.3-85.1h48.8v2.6c0,16.4,13.4,29.8,29.8,29.8S156,423.4,156,407v-2.6h308.3
			C464.7,410.8,464.6,421.7,460.7,434z M497,356.8v6.6c0,14.4-11.7,26.1-26.1,26.1H156v-17.2c11-1.8,17.6-7,23.6-11.7
			c6.4-5.1,11.4-9.1,22.3-9.1s15.9,4,22.3,9.1c6.9,5.5,15.5,12.3,31.6,12.3s24.4-6.5,31.6-12.3c6.4-5.1,11.4-9.1,22.3-9.1
			c10.9,0,15.9,4,22.3,9.1c7.3,5.8,15.5,12.3,31.6,12.3s24.4-6.5,31.6-12.3c6.4-5.1,11.4-9.1,22.3-9.1c8.2,0,12.9,2.9,16.8,6.1
			c8.3,6.8,19.4,8.2,29.1,3.6c9.6-4.5,15.6-14,15.6-24.6v-4.5C489.5,335.5,497,345.3,497,356.8z M470.9,257.7H41.1
			C26.7,257.7,15,246,15,231.6V225c0-14.4,11.7-26.1,26.1-26.1h429.9c14.4,0,26.1,11.7,26.1,26.1v6.6
			C497,246,485.3,257.7,470.9,257.7z"/>
	</g>
</g>
</svg>
